<svg xmlns="http://www.w3.org/2000/svg" viewBox="0 0 400 340"><defs><linearGradient id="olive" x1="0" x2="1"><stop stop-color="#6c7d59"/><stop offset=".4" stop-color="#8c9b72"/><stop offset="1" stop-color="#4d6248"/></linearGradient><linearGradient id="dark"><stop stop-color="#24362d"/><stop offset=".5" stop-color="#53634e"/><stop offset="1" stop-color="#1e3026"/></linearGradient><linearGradient id="silver"><stop stop-color="#c4cbbb"/><stop offset=".35" stop-color="#edeee3"/><stop offset="1" stop-color="#b2bbab"/></linearGradient><linearGradient id="sand"><stop stop-color="#b0a382"/><stop offset=".4" stop-color="#dbceb0"/><stop offset="1" stop-color="#a79977"/></linearGradient><linearGradient id="tan"><stop stop-color="#a88664"/><stop offset=".35" stop-color="#d0b28e"/><stop offset="1" stop-color="#a7805b"/></linearGradient><linearGradient id="wood" x1="0" y1="0" x2="1" y2="1"><stop stop-color="#e1c49b"/><stop offset="1" stop-color="#bd9769"/></linearGradient><pattern id="mesh" width="4" height="4" patternUnits="userSpaceOnUse"><rect width="4" height="4" fill="#65745b"/><circle cx="2" cy="2" r=".8" fill="#a0ad90"/></pattern><filter id="shadow" x="-40%" y="-30%" width="180%" height="180%"><feDropShadow dx="4" dy="14" stdDeviation="9" flood-color="#233024" flood-opacity=".18"/></filter><filter id="blur"><feGaussianBlur stdDeviation="8"/></filter></defs><ellipse cx="205" cy="293" rx="100" ry="10" fill="#43513a" opacity=".10" filter="url(#blur)"/><g filter="url(#shadow)"><path d="M103 170C94 36 304 23 302 166" fill="none" stroke="#25332b" stroke-width="35"/><path d="M107 148C112 44 288 43 295 147" fill="none" stroke="#69806a" stroke-width="17"/><path d="M109 129v55m188-58v58" stroke="#b7bfac" stroke-width="11"/><g transform="rotate(10 116 205)"><rect x="78" y="144" width="75" height="132" rx="36" fill="url(#dark)"/><rect x="91" y="153" width="55" height="112" rx="27" fill="#51644d"/><rect x="96" y="164" width="42" height="90" rx="21" fill="url(#olive)"/><path d="M108 180v48" stroke="#a3ad8e" stroke-width="2" opacity=".4"/></g><g transform="rotate(-12 287 205)"><rect x="252" y="140" width="75" height="136" rx="36" fill="url(#dark)"/><rect x="256" y="150" width="55" height="116" rx="27" fill="#5f7357"/><rect x="263" y="164" width="40" height="88" rx="20" fill="url(#olive)"/><circle cx="283" cy="205" r="12" fill="none" stroke="#b0bb97" stroke-width="1" opacity=".5"/><path d="M279 200v10m5-10v10" stroke="#b6c29d" stroke-width="1.5"/></g></g></svg>