<svg xmlns="http://www.w3.org/2000/svg" viewBox="0 0 400 340"><defs><linearGradient id="olive" x1="0" x2="1"><stop stop-color="#6c7d59"/><stop offset=".4" stop-color="#8c9b72"/><stop offset="1" stop-color="#4d6248"/></linearGradient><linearGradient id="dark"><stop stop-color="#24362d"/><stop offset=".5" stop-color="#53634e"/><stop offset="1" stop-color="#1e3026"/></linearGradient><linearGradient id="silver"><stop stop-color="#c4cbbb"/><stop offset=".35" stop-color="#edeee3"/><stop offset="1" stop-color="#b2bbab"/></linearGradient><linearGradient id="sand"><stop stop-color="#b0a382"/><stop offset=".4" stop-color="#dbceb0"/><stop offset="1" stop-color="#a79977"/></linearGradient><linearGradient id="tan"><stop stop-color="#a88664"/><stop offset=".35" stop-color="#d0b28e"/><stop offset="1" stop-color="#a7805b"/></linearGradient><linearGradient id="wood" x1="0" y1="0" x2="1" y2="1"><stop stop-color="#e1c49b"/><stop offset="1" stop-color="#bd9769"/></linearGradient><pattern id="mesh" width="4" height="4" patternUnits="userSpaceOnUse"><rect width="4" height="4" fill="#65745b"/><circle cx="2" cy="2" r=".8" fill="#a0ad90"/></pattern><filter id="shadow" x="-40%" y="-30%" width="180%" height="180%"><feDropShadow dx="4" dy="14" stdDeviation="9" flood-color="#233024" flood-opacity=".18"/></filter><filter id="blur"><feGaussianBlur stdDeviation="8"/></filter></defs><ellipse cx="205" cy="293" rx="100" ry="10" fill="#43513a" opacity=".10" filter="url(#blur)"/><g filter="url(#shadow)"><g transform="translate(37 98) rotate(-12 160 75)"><rect x="0" y="0" width="330" height="156" rx="14" fill="#333c38"/><rect x="4" y="-5" width="322" height="150" rx="12" fill="url(#silver)"/><rect x="10" y="9" width="23" height="25" rx="4" fill="#697d61"/><path d="M17 18h7" stroke="#969f8b" stroke-width="1"/><rect x="36" y="9" width="23" height="25" rx="4" fill="#c3cabc"/><path d="M43 18h7" stroke="#969f8b" stroke-width="1"/><rect x="62" y="9" width="23" height="25" rx="4" fill="#c3cabc"/><path d="M69 18h7" stroke="#969f8b" stroke-width="1"/><rect x="88" y="9" width="23" height="25" rx="4" fill="#c3cabc"/><path d="M95 18h7" stroke="#969f8b" stroke-width="1"/><rect x="114" y="9" width="23" height="25" rx="4" fill="#c3cabc"/><path d="M121 18h7" stroke="#969f8b" stroke-width="1"/><rect x="140" y="9" width="23" height="25" rx="4" fill="#c3cabc"/><path d="M147 18h7" stroke="#969f8b" stroke-width="1"/><rect x="166" y="9" width="23" height="25" rx="4" fill="#c3cabc"/><path d="M173 18h7" stroke="#969f8b" stroke-width="1"/><rect x="192" y="9" width="23" height="25" rx="4" fill="#c3cabc"/><path d="M199 18h7" stroke="#969f8b" stroke-width="1"/><rect x="218" y="9" width="23" height="25" rx="4" fill="#c3cabc"/><path d="M225 18h7" stroke="#969f8b" stroke-width="1"/><rect x="244" y="9" width="23" height="25" rx="4" fill="#c3cabc"/><path d="M251 18h7" stroke="#969f8b" stroke-width="1"/><rect x="270" y="9" width="23" height="25" rx="4" fill="#c3cabc"/><path d="M277 18h7" stroke="#969f8b" stroke-width="1"/><rect x="296" y="9" width="23" height="25" rx="4" fill="#697d61"/><path d="M303 18h7" stroke="#969f8b" stroke-width="1"/><rect x="10" y="41" width="23" height="25" rx="4" fill="#697d61"/><path d="M17 50h7" stroke="#969f8b" stroke-width="1"/><rect x="36" y="41" width="23" height="25" rx="4" fill="#eeeee2"/><path d="M43 50h7" stroke="#969f8b" stroke-width="1"/><rect x="62" y="41" width="23" height="25" rx="4" fill="#eeeee2"/><path d="M69 50h7" stroke="#969f8b" stroke-width="1"/><rect x="88" y="41" width="23" height="25" rx="4" fill="#eeeee2"/><path d="M95 50h7" stroke="#969f8b" stroke-width="1"/><rect x="114" y="41" width="23" height="25" rx="4" fill="#eeeee2"/><path d="M121 50h7" stroke="#969f8b" stroke-width="1"/><rect x="140" y="41" width="23" height="25" rx="4" fill="#eeeee2"/><path d="M147 50h7" stroke="#969f8b" stroke-width="1"/><rect x="166" y="41" width="23" height="25" rx="4" fill="#eeeee2"/><path d="M173 50h7" stroke="#969f8b" stroke-width="1"/><rect x="192" y="41" width="23" height="25" rx="4" fill="#eeeee2"/><path d="M199 50h7" stroke="#969f8b" stroke-width="1"/><rect x="218" y="41" width="23" height="25" rx="4" fill="#eeeee2"/><path d="M225 50h7" stroke="#969f8b" stroke-width="1"/><rect x="244" y="41" width="23" height="25" rx="4" fill="#eeeee2"/><path d="M251 50h7" stroke="#969f8b" stroke-width="1"/><rect x="270" y="41" width="23" height="25" rx="4" fill="#eeeee2"/><path d="M277 50h7" stroke="#969f8b" stroke-width="1"/><rect x="296" y="41" width="23" height="25" rx="4" fill="#697d61"/><path d="M303 50h7" stroke="#969f8b" stroke-width="1"/><rect x="10" y="73" width="23" height="25" rx="4" fill="#697d61"/><path d="M17 82h7" stroke="#969f8b" stroke-width="1"/><rect x="36" y="73" width="23" height="25" rx="4" fill="#eeeee2"/><path d="M43 82h7" stroke="#969f8b" stroke-width="1"/><rect x="62" y="73" width="23" height="25" rx="4" fill="#eeeee2"/><path d="M69 82h7" stroke="#969f8b" stroke-width="1"/><rect x="88" y="73" width="23" height="25" rx="4" fill="#eeeee2"/><path d="M95 82h7" stroke="#969f8b" stroke-width="1"/><rect x="114" y="73" width="23" height="25" rx="4" fill="#eeeee2"/><path d="M121 82h7" stroke="#969f8b" stroke-width="1"/><rect x="140" y="73" width="23" height="25" rx="4" fill="#eeeee2"/><path d="M147 82h7" stroke="#969f8b" stroke-width="1"/><rect x="166" y="73" width="23" height="25" rx="4" fill="#eeeee2"/><path d="M173 82h7" stroke="#969f8b" stroke-width="1"/><rect x="192" y="73" width="23" height="25" rx="4" fill="#eeeee2"/><path d="M199 82h7" stroke="#969f8b" stroke-width="1"/><rect x="218" y="73" width="23" height="25" rx="4" fill="#eeeee2"/><path d="M225 82h7" stroke="#969f8b" stroke-width="1"/><rect x="244" y="73" width="23" height="25" rx="4" fill="#eeeee2"/><path d="M251 82h7" stroke="#969f8b" stroke-width="1"/><rect x="270" y="73" width="23" height="25" rx="4" fill="#eeeee2"/><path d="M277 82h7" stroke="#969f8b" stroke-width="1"/><rect x="296" y="73" width="23" height="25" rx="4" fill="#697d61"/><path d="M303 82h7" stroke="#969f8b" stroke-width="1"/><rect x="10" y="105" width="23" height="25" rx="4" fill="#697d61"/><path d="M17 114h7" stroke="#969f8b" stroke-width="1"/><rect x="36" y="105" width="23" height="25" rx="4" fill="#eeeee2"/><path d="M43 114h7" stroke="#969f8b" stroke-width="1"/><rect x="62" y="105" width="23" height="25" rx="4" fill="#eeeee2"/><path d="M69 114h7" stroke="#969f8b" stroke-width="1"/><rect x="244" y="105" width="23" height="25" rx="4" fill="#eeeee2"/><path d="M251 114h7" stroke="#969f8b" stroke-width="1"/><rect x="270" y="105" width="23" height="25" rx="4" fill="#eeeee2"/><path d="M277 114h7" stroke="#969f8b" stroke-width="1"/><rect x="296" y="105" width="23" height="25" rx="4" fill="#697d61"/><path d="M303 114h7" stroke="#969f8b" stroke-width="1"/><rect x="86" y="110" width="137" height="24" rx="4" fill="#e9e9dc"/><circle cx="303" cy="12" r="3" fill="#92b180"/></g></g></svg>